<svg width="256" height="256" viewBox="0 0 256 256" xmlns="http://www.w3.org/2000/svg">
  <defs>
    <linearGradient id="g" x1="0" y1="0" x2="1" y2="1">
      <stop offset="0" stop-color="#6366F1"></stop>
      <stop offset="1" stop-color="#3B82F6"></stop>
    </linearGradient>
  </defs>
  <!-- cabeça -->
  <circle cx="128" cy="96" r="68" fill="#E9EEF9" stroke="#C8D3EA" stroke-width="6"></circle>
  <!-- orelhas -->
  <circle cx="80" cy="56" r="18" fill="#E9EEF9" stroke="#C8D3EA" stroke-width="6"></circle>
  <circle cx="176" cy="56" r="18" fill="#E9EEF9" stroke="#C8D3EA" stroke-width="6"></circle>
  <!-- bochechas -->
  <circle cx="103" cy="110" r="8" fill="#F2B6C1" opacity=".6"></circle>
  <circle cx="153" cy="110" r="8" fill="#F2B6C1" opacity=".6"></circle>
  <!-- olhos -->
  <path d="M96 98 q10 -10 20 0" stroke="#3A4152" stroke-width="6" fill="none" stroke-linecap="round"></path>
  <path d="M140 98 q10 -10 20 0" stroke="#3A4152" stroke-width="6" fill="none" stroke-linecap="round"></path>
  <!-- boca -->
  <path d="M106 122 q22 18 44 0" stroke="#3A4152" stroke-width="6" fill="none" stroke-linecap="round"></path>
  <!-- cachecol -->
  <path d="M68 154 h120 a8 8 0 0 1 8 8 v10 H60 v-10 a8 8 0 0 1 8 -8z" fill="url(#g)"></path>
  <rect x="60" y="168" width="56" height="18" rx="9" fill="#8B9AFB"></rect>
  <!-- mãos apoiadas -->
  <circle cx="68" cy="182" r="10" fill="#E9EEF9" stroke="#C8D3EA" stroke-width="6"></circle>
  <circle cx="188" cy="182" r="10" fill="#E9EEF9" stroke="#C8D3EA" stroke-width="6"></circle>
</svg>
